<svg version="1.2" xmlns="http://www.w3.org/2000/svg" viewBox="0 0 1104 1104" width="1104" height="1104">
	<style>
		.s0 { fill: #cc9933 } 
	</style>
	<g id="layer1">
		<path id="path3012" class="s0" d="m552.05 218l-84.85 128.79h169.2z"/>
		<path id="path3014" class="s0" d="m382.85 475.08l84.35-128.29 84.85 128.29z"/>
		<path id="path3016" class="s0" d="m552.05 475.08h169.7l-85.35-128.29z"/>
		<path id="path3082" class="s0" d="m0 257.82l41.43 125 288.57 43.58v30.71l-259.29 28.57 51.43 100.72 215-80.72 13.57 26.43-164.28 124.29 70.71 50 120-133.58 18.57 17.86-58.57 139.29 70.72 14.28 25-127.14c22.24 3.03 54.92 0 54.03-30.71-0.43-14.97-7.41-33.32-33.23-41.29-111.43-34.38-88.66-173.71-53.66-231.57-41.84 33.25-44.81 50.04-56.43 65.71-19.11-5.09-343.57-121.43-343.57-121.43z"/>
		<path id="path3082-1" class="s0" d="m1103.75 257.82l-41.43 125-288.57 43.58v30.71l259.29 28.57-51.43 100.72-215-80.72-13.57 26.43 164.28 124.29-70.71 50-120-133.58-18.57 17.86 58.57 139.29-70.72 14.28-25-127.14c-22.24 3.03-54.92 0-54.03-30.71 0.43-14.97 7.41-33.32 33.23-41.29 111.43-34.38 88.66-173.71 53.66-231.57 41.84 33.25 44.81 50.04 56.43 65.71 19.11-5.09 343.57-121.43 343.57-121.43z"/>
		<path id="path3120" class="s0" d="m452.5 820.32l-11.79 35.36 45.9-43.57c0 0 4.82-9.29-5.18-13.93-11.21 0-14.23 0-16.6 0-3.22-0.61-0.75-6.46-0.75-6.46 0 0 23.03-37.12 35.3-57.11 3.18-14.86-20.02-28.21-32.18-14.73-14.7 29.59-34.52 78.3-37.56 78.3-3.03 0-86.07 0-86.07 0 0 0-16.43 2.95-6.43 16.07 10 13.13 66.43 54.65 66.43 54.65l-21.52-48.58z"/>
		<path id="path3120-7" class="s0" d="m651.31 820.32l11.78 35.36-45.89-43.57c0 0-4.82-9.29 5.18-13.93 11.2 0 14.23 0 16.59 0 3.23-0.61 0.75-6.46 0.75-6.46 0 0-23.02-37.12-35.29-57.11-3.19-14.86 20.02-28.21 32.18-14.73 14.7 29.59 34.52 78.3 37.55 78.3 3.04 0 86.08 0 86.08 0 0 0 16.42 2.95 6.42 16.07-10 13.13-66.42 54.65-66.42 54.65l21.51-48.58z"/>
		<path id="path3156" class="s0" d="m552.05 514.73c-0.76 15.15-20.98 52.53-26.28 58.1-4.26 4.46-10.1 13.56-21.97 44.28-11.87 30.71-6.96 32.17-31.56 50.15 101.16 46.52 43.43 93.72 43.43 104.57 12.67 32.03 36.38 96.71 36.38 96.71 0 0 23.67-64.68 36.34-96.71 0-10.85-57.72-58.05 43.44-104.57-24.6-17.98-19.69-19.44-31.56-50.15-11.87-30.72-17.71-39.82-21.97-44.28-5.3-5.57-25.49-42.95-26.25-58.1z"/>
	</g>
</svg>