<svg xmlns="http://www.w3.org/2000/svg"  viewBox="0 0 48 48" width="48px" height="48px"><path fill="#757575" d="M6,28v13c0,2.209,1.791,4,4,4h29c2.209,0,4-1.791,4-4V28c0-2.209-1.791-4-4-4H10	C7.791,24,6,25.791,6,28z"/><path fill="#757575" d="M6,7v13c0,2.209,1.791,4,4,4h29c2.209,0,4-1.791,4-4V7c0-2.209-1.791-4-4-4H10C7.791,3,6,4.791,6,7z"/><rect width="27" height="14" x="11" y="6" fill="#455a64"/><rect width="15" height="15" x="17" y="27" fill="#455a64"/><polygon fill="#aed581" points="15,37 13,37 13,35 10,35 10,37 8,37 8,40 10,40 10,42 13,42 13,40 15,40"/><circle cx="34.5" cy="32.5" r="1.5" fill="#aed581"/><circle cx="40.5" cy="32.5" r="1.5" fill="#aed581"/><circle cx="37.5" cy="29.5" r="1.5" fill="#aed581"/><circle cx="37.5" cy="35.5" r="1.5" fill="#aed581"/><circle cx="11.5" cy="29.5" r="2.5" fill="#bdbdbd"/><rect width="23" height="2" x="13" y="23" fill="#455a64"/></svg>