<svg xmlns="http://www.w3.org/2000/svg" width="256" height="256" viewBox="0 0 256 256" xml:space="preserve"><g style="stroke:none;stroke-width:0;stroke-dasharray:none;stroke-linecap:butt;stroke-linejoin:miter;stroke-miterlimit:10;fill:none;fill-rule:nonzero;opacity:1"><path d="M44.63 70.618H6.737A6.744 6.744 0 0 1 0 63.882V26.128a6.744 6.744 0 0 1 6.737-6.737h46.666a2 2 0 0 1 0 4H6.737A2.74 2.74 0 0 0 4 26.128v37.754a2.74 2.74 0 0 0 2.737 2.736H44.63a2 2 0 0 1 0 4" style="stroke:none;stroke-width:1;stroke-dasharray:none;stroke-linecap:butt;stroke-linejoin:miter;stroke-miterlimit:10;fill:#bdbdbd;fill-rule:nonzero;opacity:1" transform="translate(1.407 1.407)scale(2.81)"/><path d="M53.402 70.618H44.63a2 2 0 0 1 0-4h8.772a2 2 0 0 1 0 4m-6.45 7.721H26.287a2 2 0 0 1 0-4h20.666a2 2 0 0 1-.001 4m36.102 0h-17.31a6.954 6.954 0 0 1-6.946-6.946V18.607a6.954 6.954 0 0 1 6.946-6.946h17.31A6.954 6.954 0 0 1 90 18.607v52.786a6.954 6.954 0 0 1-6.946 6.946m-17.31-62.678a2.95 2.95 0 0 0-2.946 2.946v52.786a2.95 2.95 0 0 0 2.946 2.946h17.31A2.95 2.95 0 0 0 86 71.393V18.607a2.95 2.95 0 0 0-2.946-2.946z" style="stroke:none;stroke-width:1;stroke-dasharray:none;stroke-linecap:butt;stroke-linejoin:miter;stroke-miterlimit:10;fill:#bdbdbd;fill-rule:nonzero;opacity:1" transform="translate(1.407 1.407)scale(2.81)"/><path d="M36.62 78.339a2 2 0 0 1-2-2v-7.721a2 2 0 0 1 4 0v7.721a2 2 0 0 1-2 2M88 32.61H60.798a2 2 0 0 1 0-4H88a2 2 0 0 1 0 4m0-8.688H60.798a2 2 0 0 1 0-4H88a2 2 0 0 1 0 4m-5.053 16.49h-4.121a2 2 0 0 1 0-4h4.121a2 2 0 0 1 0 4m320.514 451.504h4.354v.876h-3.311v2.687h3.059v.863h-3.059V500h-1.043zm5.496 4.09c0-.684-.013-1.271-.049-1.811h.924l.036 1.139h.048c.264-.779.899-1.271 1.607-1.271.119 0 .203.012.3.036v.995a1.6 1.6 0 0 0-.36-.036c-.743 0-1.271.564-1.415 1.355a3 3 0 0 0-.048.492V500h-1.043zm4.391 1.283c.024 1.428.936 2.016 1.991 2.016.755 0 1.212-.133 1.606-.301l.181.756c-.372.168-1.007.36-1.931.36-1.787 0-2.855-1.176-2.855-2.927s1.032-3.13 2.723-3.13c1.896 0 2.399 1.667 2.399 2.734 0 .216-.024.384-.036.491h-4.078zm3.094-.756c.012-.671-.276-1.715-1.464-1.715-1.066 0-1.535.984-1.619 1.715zm2.918.756c.024 1.428.936 2.016 1.991 2.016.755 0 1.211-.133 1.606-.301l.181.756c-.373.168-1.008.36-1.932.36-1.787 0-2.854-1.176-2.854-2.927s1.032-3.13 2.723-3.13c1.896 0 2.399 1.667 2.399 2.734 0 .216-.025.384-.037.491h-4.077zm3.095-.756c.012-.671-.276-1.715-1.464-1.715-1.067 0-1.535.984-1.619 1.715zm5.953-4.617V500h-1.044v-8.084zm5.926 7.868c-.275.144-.888.336-1.667.336-1.751 0-2.891-1.188-2.891-2.962 0-1.787 1.224-3.083 3.118-3.083.624 0 1.176.155 1.463.3l-.239.815c-.252-.144-.647-.275-1.224-.275-1.331 0-2.051.983-2.051 2.194 0 1.344.863 2.171 2.016 2.171.6 0 .995-.155 1.295-.288zm6.419-2.734c0 2.146-1.487 3.082-2.89 3.082-1.572 0-2.783-1.151-2.783-2.986 0-1.942 1.271-3.082 2.879-3.082 1.667-.001 2.794 1.21 2.794 2.986m-4.606.059c0 1.271.731 2.23 1.763 2.23 1.008 0 1.764-.947 1.764-2.254 0-.984-.492-2.23-1.739-2.23s-1.788 1.151-1.788 2.254m5.941-1.343c0-.6-.012-1.091-.047-1.57h.936l.06.959h.024c.287-.551.959-1.091 1.918-1.091.804 0 2.051.479 2.051 2.47V500h-1.055v-3.346c0-.936-.348-1.715-1.344-1.715-.695 0-1.235.491-1.415 1.078a1.5 1.5 0 0 0-.071.492V500h-1.057zm6.516 3.154c.313.205.864.42 1.393.42.768 0 1.127-.383 1.127-.863 0-.504-.301-.779-1.08-1.067-1.043-.372-1.535-.947-1.535-1.644 0-.935.756-1.702 2.004-1.702.587 0 1.103.167 1.427.359l-.265.768a2.25 2.25 0 0 0-1.187-.335c-.624 0-.972.359-.972.791 0 .479.348.695 1.104.983 1.008.384 1.523.888 1.523 1.751 0 1.02-.792 1.739-2.172 1.739-.635 0-1.223-.156-1.631-.396zm7.476-7.004h4.354v.876h-3.311v2.687h3.059v.863h-3.059V500h-1.043zm10.69 5.134c0 2.146-1.487 3.082-2.891 3.082-1.571 0-2.783-1.151-2.783-2.986 0-1.942 1.271-3.082 2.879-3.082 1.668-.001 2.795 1.21 2.795 2.986m-4.606.059c0 1.271.731 2.23 1.763 2.23 1.007 0 1.763-.947 1.763-2.254 0-.984-.491-2.23-1.738-2.23-1.249 0-1.788 1.151-1.788 2.254m5.94-1.103c0-.684-.012-1.271-.047-1.811h.923l.036 1.139h.048c.264-.779.899-1.271 1.606-1.271.121 0 .205.012.301.036v.995a1.6 1.6 0 0 0-.359-.036c-.744 0-1.271.564-1.416 1.355a3 3 0 0 0-.048.492V500h-1.044zm6.503-3.994a12 12 0 0 1 2.004-.155c1.031 0 1.786.239 2.266.672.444.384.708.972.708 1.69 0 .732-.216 1.308-.624 1.728-.551.587-1.451.888-2.471.888-.312 0-.6-.012-.839-.072V500h-1.044zm1.044 3.898c.228.061.516.084.863.084 1.259 0 2.026-.611 2.026-1.727 0-1.068-.755-1.584-1.906-1.584-.456 0-.804.037-.983.084zm10.257 1.14c0 2.146-1.486 3.082-2.89 3.082-1.571 0-2.782-1.151-2.782-2.986 0-1.942 1.271-3.082 2.878-3.082 1.667-.001 2.794 1.21 2.794 2.986m-4.605.059c0 1.271.732 2.23 1.764 2.23 1.008 0 1.764-.947 1.764-2.254 0-.984-.492-2.23-1.74-2.23s-1.788 1.151-1.788 2.254m6.277-2.914.768 2.95c.168.647.323 1.247.432 1.847h.035a26 26 0 0 1 .516-1.834l.947-2.963h.889l.898 2.902c.217.695.385 1.307.516 1.895h.037c.096-.588.252-1.199.443-1.883l.828-2.914h1.043L493.061 500h-.959l-.889-2.771a20 20 0 0 1-.516-1.907h-.023a18 18 0 0 1-.527 1.92l-.936 2.758h-.96l-1.751-5.805zm8.88 3.094c.024 1.428.936 2.016 1.991 2.016.755 0 1.211-.133 1.606-.301l.18.756c-.372.168-1.007.36-1.931.36-1.787 0-2.854-1.176-2.854-2.927s1.032-3.13 2.723-3.13c1.895 0 2.398 1.667 2.398 2.734 0 .216-.023.384-.036.491zm3.095-.756c.012-.671-.276-1.715-1.464-1.715-1.067 0-1.535.984-1.619 1.715zm2.329-.527c0-.684-.013-1.271-.049-1.811h.924l.036 1.139h.048c.264-.779.899-1.271 1.607-1.271.12 0 .204.012.3.036v.995a1.6 1.6 0 0 0-.36-.036c-.743 0-1.271.564-1.415 1.355a3 3 0 0 0-.048.492V500h-1.043zm3.972.084a40 40 0 0 0-.049-1.895h.948l.048.995h.023c.432-.708 1.115-1.127 2.063-1.127 1.403 0 2.458 1.187 2.458 2.95 0 2.087-1.271 3.118-2.639 3.118-.768 0-1.438-.336-1.786-.911h-.024v3.154h-1.043zm1.043 1.547c0 .156.024.301.048.432a1.63 1.63 0 0 0 1.583 1.236c1.115 0 1.764-.912 1.764-2.243 0-1.163-.612-2.159-1.728-2.159-.72 0-1.392.516-1.595 1.308a1.7 1.7 0 0 0-.072.432zm11.038-.587c0 2.146-1.487 3.082-2.891 3.082-1.571 0-2.782-1.151-2.782-2.986 0-1.942 1.271-3.082 2.878-3.082 1.667-.001 2.795 1.21 2.795 2.986m-4.606.059c0 1.271.731 2.23 1.763 2.23 1.008 0 1.763-.947 1.763-2.254 0-.984-.491-2.23-1.738-2.23-1.249 0-1.788 1.151-1.788 2.254m7.116-4.545c.012.359-.252.647-.672.647a.63.63 0 0 1-.636-.647c0-.372.276-.66.66-.66.396 0 .648.288.648.66M519.272 500v-5.805h1.055V500zm2.808-4.234c0-.6-.013-1.091-.049-1.57h.936l.061.959h.023c.288-.551.96-1.091 1.919-1.091.804 0 2.051.479 2.051 2.47V500h-1.055v-3.346c0-.936-.349-1.715-1.344-1.715-.695 0-1.235.491-1.415 1.078a1.5 1.5 0 0 0-.072.492V500h-1.055zm7.882-3.238v1.667h1.512v.803h-1.512v3.131c0 .72.204 1.127.792 1.127.275 0 .479-.035.611-.071l.048.792c-.203.083-.527.144-.936.144-.491 0-.887-.156-1.139-.444-.3-.312-.408-.827-.408-1.511v-3.167h-.899v-.803h.899v-1.392zm5.281-.516a12 12 0 0 1 2.003-.155c1.032 0 1.787.239 2.268.672.443.384.707.972.707 1.69 0 .732-.216 1.308-.624 1.728-.551.587-1.451.888-2.47.888-.313 0-.601-.012-.84-.072V500h-1.044zm1.044 3.898c.228.061.516.084.863.084 1.26 0 2.027-.611 2.027-1.727 0-1.068-.756-1.584-1.907-1.584-.456 0-.804.037-.983.084zm5.112.096c0-.684-.013-1.271-.049-1.811h.924l.036 1.139h.048c.264-.779.899-1.271 1.607-1.271.12 0 .204.012.3.036v.995a1.6 1.6 0 0 0-.36-.036c-.743 0-1.271.564-1.415 1.355a3 3 0 0 0-.048.492V500h-1.043zm4.392 1.283c.024 1.428.936 2.016 1.991 2.016.756 0 1.211-.133 1.607-.301l.18.756c-.372.168-1.008.36-1.931.36-1.787 0-2.854-1.176-2.854-2.927s1.031-3.13 2.723-3.13c1.895 0 2.398 1.667 2.398 2.734 0 .216-.024.384-.036.491zm3.095-.756c.012-.671-.276-1.715-1.463-1.715-1.067 0-1.535.984-1.619 1.715zm2.185 2.387c.312.205.863.42 1.392.42.768 0 1.127-.383 1.127-.863 0-.504-.3-.779-1.079-1.067-1.044-.372-1.535-.947-1.535-1.644 0-.935.756-1.702 2.003-1.702.588 0 1.104.167 1.427.359l-.264.768a2.26 2.26 0 0 0-1.188-.335c-.623 0-.971.359-.971.791 0 .479.348.695 1.103.983 1.008.384 1.523.888 1.523 1.751 0 1.02-.791 1.739-2.171 1.739-.636 0-1.223-.156-1.631-.396zm5.484-1.631c.024 1.428.936 2.016 1.991 2.016.756 0 1.211-.133 1.607-.301l.18.756c-.372.168-1.008.36-1.931.36-1.787 0-2.854-1.176-2.854-2.927s1.031-3.13 2.723-3.13c1.895 0 2.398 1.667 2.398 2.734 0 .216-.024.384-.036.491zm3.094-.756c.012-.671-.276-1.715-1.463-1.715-1.067 0-1.535.984-1.619 1.715zm2.33-.767c0-.6-.013-1.091-.049-1.57h.936l.061.959h.023c.288-.551.96-1.091 1.919-1.091.804 0 2.051.479 2.051 2.47V500h-1.055v-3.346c0-.936-.348-1.715-1.344-1.715-.695 0-1.235.491-1.415 1.078a1.5 1.5 0 0 0-.072.492V500h-1.055zm7.883-3.238v1.667h1.512v.803h-1.512v3.131c0 .72.204 1.127.792 1.127.275 0 .479-.035.611-.071l.048.792c-.203.083-.527.144-.936.144-.491 0-.887-.156-1.139-.444-.3-.312-.408-.827-.408-1.511v-3.167h-.899v-.803h.899v-1.392zm5.915 7.472-.084-.731h-.036c-.323.456-.947.863-1.775.863-1.175 0-1.774-.827-1.774-1.667 0-1.403 1.247-2.171 3.49-2.158v-.121c0-.479-.132-1.343-1.319-1.343-.54 0-1.104.168-1.512.432l-.239-.695c.479-.312 1.175-.516 1.906-.516 1.775 0 2.207 1.211 2.207 2.374v2.172c0 .503.024.994.096 1.391h-.96zm-.156-2.963c-1.151-.023-2.458.181-2.458 1.308 0 .684.455 1.008.995 1.008.756 0 1.235-.479 1.403-.972.036-.107.06-.229.06-.336zm3.949-4.509v1.667h1.512v.803h-1.512v3.131c0 .72.204 1.127.792 1.127.275 0 .479-.035.611-.071l.048.792c-.203.083-.527.144-.936.144-.491 0-.887-.156-1.139-.444-.3-.312-.408-.827-.408-1.511v-3.167h-.899v-.803h.899v-1.392zm3.876.036c.012.359-.252.647-.672.647a.63.63 0 0 1-.636-.647c0-.372.276-.66.66-.66.396 0 .648.288.648.66M582.271 500v-5.805h1.055V500zm8.061-2.95c0 2.146-1.487 3.082-2.891 3.082-1.571 0-2.782-1.151-2.782-2.986 0-1.942 1.271-3.082 2.878-3.082 1.667-.001 2.795 1.21 2.795 2.986m-4.605.059c0 1.271.731 2.23 1.763 2.23 1.008 0 1.763-.947 1.763-2.254 0-.984-.491-2.23-1.738-2.23-1.249 0-1.788 1.151-1.788 2.254m5.94-1.343c0-.6-.013-1.091-.049-1.57h.936l.061.959h.023c.288-.551.96-1.091 1.919-1.091.804 0 2.051.479 2.051 2.47V500h-1.055v-3.346c0-.936-.348-1.715-1.344-1.715-.695 0-1.235.491-1.415 1.078a1.5 1.5 0 0 0-.072.492V500h-1.055z" style="stroke:none;stroke-width:1;stroke-dasharray:none;stroke-linecap:butt;stroke-linejoin:miter;stroke-miterlimit:10;fill:#bdbdbd;fill-rule:nonzero;opacity:1" transform="translate(1.407 1.407)scale(2.81)"/></g></svg>